<svg width="10" height="4" viewBox="0 0 10 4" fill="none" xmlns="http://www.w3.org/2000/svg">
<path d="M9.24921 2.26406C8.08225 1.22673 6.57518 0.653732 5.01382 0.653732C3.45246 0.653732 1.94539 1.22673 0.778428 2.26406C0.679821 2.34939 0.599149 2.45345 0.541098 2.57022C0.483047 2.68698 0.448773 2.81412 0.440268 2.94424C0.431762 3.07436 0.449195 3.20487 0.491552 3.3282C0.53391 3.45153 0.600348 3.56521 0.687009 3.66264C0.77367 3.76008 0.878827 3.83933 0.996371 3.89578C1.11392 3.95224 1.24151 3.98477 1.37173 3.99151C1.50195 3.99824 1.63222 3.97903 1.75496 3.935C1.8777 3.89096 1.99046 3.82298 2.08671 3.735C2.89325 3.01818 3.93478 2.62224 5.01382 2.62224C6.09286 2.62224 7.13439 3.01818 7.94093 3.735C8.13611 3.90849 8.39222 3.99733 8.65291 3.98199C8.9136 3.96665 9.15752 3.84838 9.33101 3.6532C9.50449 3.45802 9.59334 3.20191 9.578 2.94122C9.56266 2.68053 9.44439 2.43661 9.24921 2.26312V2.26406Z" fill="#DEE2E6"/>
</svg>
