<svg width="18" height="12" viewBox="0 0 18 12" fill="none" xmlns="http://www.w3.org/2000/svg">
<path d="M4.4 1H1.6C1.44087 1 1.28826 1.06321 1.17574 1.17574C1.06321 1.28826 1 1.44087 1 1.6V10.4C1 10.4788 1.01552 10.5568 1.04567 10.6296C1.07583 10.7024 1.12002 10.7685 1.17574 10.8243C1.23145 10.88 1.29759 10.9242 1.37039 10.9543C1.44319 10.9845 1.52121 11 1.6 11H4.4C4.47879 11 4.55681 10.9845 4.62961 10.9543C4.70241 10.9242 4.76855 10.88 4.82426 10.8243C4.87998 10.7685 4.92417 10.7024 4.95433 10.6296C4.98448 10.5568 5 10.4788 5 10.4V1.6C5 1.44087 4.93679 1.28826 4.82426 1.17574C4.71174 1.06321 4.55913 1 4.4 1ZM16.4 1H13.6C13.4409 1 13.2883 1.06321 13.1757 1.17574C13.0632 1.28826 13 1.44087 13 1.6V10.4C13 10.4788 13.0155 10.5568 13.0457 10.6296C13.0758 10.7024 13.12 10.7685 13.1757 10.8243C13.2315 10.88 13.2976 10.9242 13.3704 10.9543C13.4432 10.9845 13.5212 11 13.6 11H16.4C16.4788 11 16.5568 10.9845 16.6296 10.9543C16.7024 10.9242 16.7685 10.88 16.8243 10.8243C16.88 10.7685 16.9242 10.7024 16.9543 10.6296C16.9845 10.5568 17 10.4788 17 10.4V1.6C17 1.44087 16.9368 1.28826 16.8243 1.17574C16.7117 1.06321 16.5591 1 16.4 1Z" stroke="#DEE2E6" stroke-width="1.5" stroke-linecap="round" stroke-linejoin="round"/>
</svg>
